<mxfile host="app.diagrams.net" agent="Mozilla/5.0 (Windows NT 10.0; Win64; x64) AppleWebKit/537.36 (KHTML, like Gecko) Chrome/129.0.0.0 Safari/537.36" version="24.8.0" pages="6">
  <diagram id="cuEa5fgPRwbWDy6Gev1O" name="Utama">
    <mxGraphModel dx="3245" dy="705" grid="1" gridSize="10" guides="1" tooltips="1" connect="1" arrows="1" fold="1" page="1" pageScale="1" pageWidth="827" pageHeight="1169" math="0" shadow="0">
      <root>
        <mxCell id="0" />
        <mxCell id="1" parent="0" />
        <mxCell id="y4UqXjJfmvijK0FJIsOy-3" value="" style="edgeStyle=orthogonalEdgeStyle;rounded=0;orthogonalLoop=1;jettySize=auto;html=1;entryX=0.5;entryY=0;entryDx=0;entryDy=0;" parent="1" source="y4UqXjJfmvijK0FJIsOy-1" edge="1" target="ZT4bAi9f0VDINfJcFxNP-3">
          <mxGeometry relative="1" as="geometry">
            <mxPoint x="430" y="150" as="targetPoint" />
          </mxGeometry>
        </mxCell>
        <mxCell id="y4UqXjJfmvijK0FJIsOy-1" value="Start" style="ellipse;whiteSpace=wrap;html=1;" parent="1" vertex="1">
          <mxGeometry x="370" y="490" width="120" height="80" as="geometry" />
        </mxCell>
        <mxCell id="ZT4bAi9f0VDINfJcFxNP-2" value="" style="edgeStyle=orthogonalEdgeStyle;rounded=0;orthogonalLoop=1;jettySize=auto;html=1;" parent="1" source="ZT4bAi9f0VDINfJcFxNP-3" edge="1">
          <mxGeometry relative="1" as="geometry">
            <mxPoint x="430" y="775" as="targetPoint" />
          </mxGeometry>
        </mxCell>
        <mxCell id="ZT4bAi9f0VDINfJcFxNP-3" value="Output&lt;div&gt;Selamat Datang di Angkringan MAMA AIDIL LOVE&lt;/div&gt;" style="shape=parallelogram;perimeter=parallelogramPerimeter;whiteSpace=wrap;html=1;fixedSize=1;" parent="1" vertex="1">
          <mxGeometry x="345" y="645" width="170" height="70" as="geometry" />
        </mxCell>
        <mxCell id="D7KGcJPooZaFr0Qj-EXo-2" value="" style="edgeStyle=orthogonalEdgeStyle;rounded=0;orthogonalLoop=1;jettySize=auto;html=1;" parent="1" source="ZT4bAi9f0VDINfJcFxNP-5" target="D7KGcJPooZaFr0Qj-EXo-1" edge="1">
          <mxGeometry relative="1" as="geometry" />
        </mxCell>
        <mxCell id="ZT4bAi9f0VDINfJcFxNP-5" value="Pilihan Menu" style="whiteSpace=wrap;html=1;" parent="1" vertex="1">
          <mxGeometry x="370" y="770" width="120" height="60" as="geometry" />
        </mxCell>
        <mxCell id="dfXe3xnPYPYXVSVIS9U1-4" style="edgeStyle=orthogonalEdgeStyle;rounded=0;orthogonalLoop=1;jettySize=auto;html=1;exitX=1;exitY=0.5;exitDx=0;exitDy=0;" parent="1" source="D7KGcJPooZaFr0Qj-EXo-1" target="d8O6W7AMHeWq2prYwFso-2" edge="1">
          <mxGeometry relative="1" as="geometry">
            <mxPoint x="860" y="1050" as="targetPoint" />
          </mxGeometry>
        </mxCell>
        <mxCell id="dfXe3xnPYPYXVSVIS9U1-5" value="True" style="edgeLabel;html=1;align=center;verticalAlign=middle;resizable=0;points=[];" parent="dfXe3xnPYPYXVSVIS9U1-4" vertex="1" connectable="0">
          <mxGeometry x="-0.2164" y="-2" relative="1" as="geometry">
            <mxPoint x="-84" as="offset" />
          </mxGeometry>
        </mxCell>
        <mxCell id="dfXe3xnPYPYXVSVIS9U1-7" value="" style="edgeStyle=orthogonalEdgeStyle;rounded=0;orthogonalLoop=1;jettySize=auto;html=1;" parent="1" source="D7KGcJPooZaFr0Qj-EXo-1" target="dfXe3xnPYPYXVSVIS9U1-6" edge="1">
          <mxGeometry relative="1" as="geometry" />
        </mxCell>
        <mxCell id="dfXe3xnPYPYXVSVIS9U1-8" value="False" style="edgeLabel;html=1;align=center;verticalAlign=middle;resizable=0;points=[];" parent="dfXe3xnPYPYXVSVIS9U1-7" vertex="1" connectable="0">
          <mxGeometry x="-0.3141" y="4" relative="1" as="geometry">
            <mxPoint as="offset" />
          </mxGeometry>
        </mxCell>
        <mxCell id="D7KGcJPooZaFr0Qj-EXo-1" value="Apakah User Memilih&amp;nbsp;&lt;div&gt;Register?&lt;/div&gt;" style="rhombus;whiteSpace=wrap;html=1;" parent="1" vertex="1">
          <mxGeometry x="360" y="891" width="140" height="150" as="geometry" />
        </mxCell>
        <mxCell id="iUXYMTrvoXyO9aLzTCcH-12" style="edgeStyle=orthogonalEdgeStyle;rounded=0;orthogonalLoop=1;jettySize=auto;html=1;exitX=1;exitY=0.5;exitDx=0;exitDy=0;entryX=0.5;entryY=0;entryDx=0;entryDy=0;" parent="1" source="dfXe3xnPYPYXVSVIS9U1-6" target="y8QlMJmACyyWZ1Otbw8n-2" edge="1">
          <mxGeometry relative="1" as="geometry">
            <mxPoint x="305" y="1266" as="targetPoint" />
          </mxGeometry>
        </mxCell>
        <mxCell id="kNQjkKz1zrJibbZgdizP-21" value="" style="edgeStyle=orthogonalEdgeStyle;rounded=0;orthogonalLoop=1;jettySize=auto;html=1;" parent="1" source="dfXe3xnPYPYXVSVIS9U1-6" target="kNQjkKz1zrJibbZgdizP-20" edge="1">
          <mxGeometry relative="1" as="geometry" />
        </mxCell>
        <mxCell id="kNQjkKz1zrJibbZgdizP-22" value="False" style="edgeLabel;html=1;align=center;verticalAlign=middle;resizable=0;points=[];" parent="kNQjkKz1zrJibbZgdizP-21" vertex="1" connectable="0">
          <mxGeometry x="-0.2222" y="2" relative="1" as="geometry">
            <mxPoint x="1" as="offset" />
          </mxGeometry>
        </mxCell>
        <mxCell id="dfXe3xnPYPYXVSVIS9U1-6" value="Apakah User Memilih&amp;nbsp;&lt;div&gt;&amp;nbsp;Login?&lt;/div&gt;" style="rhombus;whiteSpace=wrap;html=1;" parent="1" vertex="1">
          <mxGeometry y="1080" width="140" height="150" as="geometry" />
        </mxCell>
        <mxCell id="iUXYMTrvoXyO9aLzTCcH-1" value="True" style="edgeLabel;html=1;align=center;verticalAlign=middle;resizable=0;points=[];" parent="1" vertex="1" connectable="0">
          <mxGeometry x="270" y="1220" as="geometry">
            <mxPoint x="-46" y="-64" as="offset" />
          </mxGeometry>
        </mxCell>
        <mxCell id="d8O6W7AMHeWq2prYwFso-1" value="" style="edgeStyle=orthogonalEdgeStyle;rounded=0;orthogonalLoop=1;jettySize=auto;html=1;" parent="1" source="d8O6W7AMHeWq2prYwFso-2" target="d8O6W7AMHeWq2prYwFso-7" edge="1">
          <mxGeometry relative="1" as="geometry" />
        </mxCell>
        <mxCell id="d8O6W7AMHeWq2prYwFso-2" value="Input Username,Password,Role" style="shape=parallelogram;perimeter=parallelogramPerimeter;whiteSpace=wrap;html=1;fixedSize=1;" parent="1" vertex="1">
          <mxGeometry x="697.15" y="1050" width="150" height="90" as="geometry" />
        </mxCell>
        <mxCell id="d8O6W7AMHeWq2prYwFso-3" value="" style="edgeStyle=orthogonalEdgeStyle;rounded=0;orthogonalLoop=1;jettySize=auto;html=1;exitX=1;exitY=0.5;exitDx=0;exitDy=0;" parent="1" source="d8O6W7AMHeWq2prYwFso-7" target="d8O6W7AMHeWq2prYwFso-8" edge="1">
          <mxGeometry relative="1" as="geometry" />
        </mxCell>
        <mxCell id="d8O6W7AMHeWq2prYwFso-4" value="True" style="edgeLabel;html=1;align=center;verticalAlign=middle;resizable=0;points=[];" parent="d8O6W7AMHeWq2prYwFso-3" vertex="1" connectable="0">
          <mxGeometry x="-0.7813" relative="1" as="geometry">
            <mxPoint x="42" as="offset" />
          </mxGeometry>
        </mxCell>
        <mxCell id="d8O6W7AMHeWq2prYwFso-5" value="" style="edgeStyle=orthogonalEdgeStyle;rounded=0;orthogonalLoop=1;jettySize=auto;html=1;" parent="1" source="d8O6W7AMHeWq2prYwFso-7" target="d8O6W7AMHeWq2prYwFso-9" edge="1">
          <mxGeometry relative="1" as="geometry" />
        </mxCell>
        <mxCell id="d8O6W7AMHeWq2prYwFso-6" value="False" style="edgeLabel;html=1;align=center;verticalAlign=middle;resizable=0;points=[];" parent="d8O6W7AMHeWq2prYwFso-5" vertex="1" connectable="0">
          <mxGeometry x="-0.4106" relative="1" as="geometry">
            <mxPoint as="offset" />
          </mxGeometry>
        </mxCell>
        <mxCell id="d8O6W7AMHeWq2prYwFso-7" value="Apakah Rolenya Valid?" style="rhombus;whiteSpace=wrap;html=1;" parent="1" vertex="1">
          <mxGeometry x="733" y="1221" width="80" height="80" as="geometry" />
        </mxCell>
        <mxCell id="oP2JBPMC7WRhOAcvdhTb-9" style="edgeStyle=orthogonalEdgeStyle;rounded=0;orthogonalLoop=1;jettySize=auto;html=1;exitX=0.5;exitY=1;exitDx=0;exitDy=0;" parent="1" source="d8O6W7AMHeWq2prYwFso-8" edge="1">
          <mxGeometry relative="1" as="geometry">
            <mxPoint x="937.8229729729729" y="1476" as="targetPoint" />
          </mxGeometry>
        </mxCell>
        <mxCell id="d8O6W7AMHeWq2prYwFso-8" value="add user to database" style="whiteSpace=wrap;html=1;" parent="1" vertex="1">
          <mxGeometry x="878" y="1346" width="120" height="60" as="geometry" />
        </mxCell>
        <mxCell id="oP2JBPMC7WRhOAcvdhTb-8" style="edgeStyle=orthogonalEdgeStyle;rounded=0;orthogonalLoop=1;jettySize=auto;html=1;exitX=0.5;exitY=1;exitDx=0;exitDy=0;" parent="1" source="d8O6W7AMHeWq2prYwFso-9" edge="1">
          <mxGeometry relative="1" as="geometry">
            <mxPoint x="1420" y="1480" as="targetPoint" />
            <Array as="points">
              <mxPoint x="650" y="1410" />
              <mxPoint x="650" y="1480" />
            </Array>
          </mxGeometry>
        </mxCell>
        <mxCell id="d8O6W7AMHeWq2prYwFso-9" value="Display Invalid Role Massage" style="whiteSpace=wrap;html=1;" parent="1" vertex="1">
          <mxGeometry x="578" y="1350" width="120" height="60" as="geometry" />
        </mxCell>
        <mxCell id="y8QlMJmACyyWZ1Otbw8n-1" value="" style="edgeStyle=orthogonalEdgeStyle;rounded=0;orthogonalLoop=1;jettySize=auto;html=1;" parent="1" source="y8QlMJmACyyWZ1Otbw8n-2" edge="1">
          <mxGeometry relative="1" as="geometry">
            <mxPoint x="310" y="1290" as="targetPoint" />
          </mxGeometry>
        </mxCell>
        <mxCell id="y8QlMJmACyyWZ1Otbw8n-2" value="Input&amp;nbsp;&lt;div&gt;Username,Password&lt;/div&gt;" style="shape=parallelogram;perimeter=parallelogramPerimeter;whiteSpace=wrap;html=1;fixedSize=1;" parent="1" vertex="1">
          <mxGeometry x="250" y="1190" width="120" height="60" as="geometry" />
        </mxCell>
        <mxCell id="y8QlMJmACyyWZ1Otbw8n-3" value="" style="edgeStyle=orthogonalEdgeStyle;rounded=0;orthogonalLoop=1;jettySize=auto;html=1;" parent="1" source="y8QlMJmACyyWZ1Otbw8n-7" target="y8QlMJmACyyWZ1Otbw8n-10" edge="1">
          <mxGeometry relative="1" as="geometry" />
        </mxCell>
        <mxCell id="y8QlMJmACyyWZ1Otbw8n-4" value="True" style="edgeLabel;html=1;align=center;verticalAlign=middle;resizable=0;points=[];" parent="y8QlMJmACyyWZ1Otbw8n-3" vertex="1" connectable="0">
          <mxGeometry x="-0.3083" y="-2" relative="1" as="geometry">
            <mxPoint as="offset" />
          </mxGeometry>
        </mxCell>
        <mxCell id="y8QlMJmACyyWZ1Otbw8n-5" value="" style="edgeStyle=orthogonalEdgeStyle;rounded=0;orthogonalLoop=1;jettySize=auto;html=1;" parent="1" source="y8QlMJmACyyWZ1Otbw8n-7" target="y8QlMJmACyyWZ1Otbw8n-11" edge="1">
          <mxGeometry relative="1" as="geometry" />
        </mxCell>
        <mxCell id="y8QlMJmACyyWZ1Otbw8n-6" value="False" style="edgeLabel;html=1;align=center;verticalAlign=middle;resizable=0;points=[];" parent="y8QlMJmACyyWZ1Otbw8n-5" vertex="1" connectable="0">
          <mxGeometry x="-0.081" relative="1" as="geometry">
            <mxPoint as="offset" />
          </mxGeometry>
        </mxCell>
        <mxCell id="y8QlMJmACyyWZ1Otbw8n-7" value="Apakah Rolenya Valid?" style="rhombus;whiteSpace=wrap;html=1;" parent="1" vertex="1">
          <mxGeometry x="270" y="1400" width="80" height="80" as="geometry" />
        </mxCell>
        <mxCell id="y8QlMJmACyyWZ1Otbw8n-8" value="True" style="edgeLabel;html=1;align=center;verticalAlign=middle;resizable=0;points=[];" parent="1" vertex="1" connectable="0">
          <mxGeometry x="676.1538461538457" y="1570" as="geometry" />
        </mxCell>
        <mxCell id="HHmb1HOGNeSiKwXKdqUK-1" style="edgeStyle=orthogonalEdgeStyle;rounded=0;orthogonalLoop=1;jettySize=auto;html=1;exitX=1;exitY=0.5;exitDx=0;exitDy=0;" parent="1" source="y8QlMJmACyyWZ1Otbw8n-10" edge="1">
          <mxGeometry relative="1" as="geometry">
            <mxPoint x="761.1594556725544" y="1620" as="targetPoint" />
          </mxGeometry>
        </mxCell>
        <mxCell id="3Ml0xzhcja7XqqaQdOc2-2" value="" style="edgeStyle=orthogonalEdgeStyle;rounded=0;orthogonalLoop=1;jettySize=auto;html=1;" parent="1" source="y8QlMJmACyyWZ1Otbw8n-10" target="3Ml0xzhcja7XqqaQdOc2-1" edge="1">
          <mxGeometry relative="1" as="geometry" />
        </mxCell>
        <mxCell id="3Ml0xzhcja7XqqaQdOc2-5" value="False" style="edgeLabel;html=1;align=center;verticalAlign=middle;resizable=0;points=[];" parent="3Ml0xzhcja7XqqaQdOc2-2" vertex="1" connectable="0">
          <mxGeometry x="-0.0997" y="1" relative="1" as="geometry">
            <mxPoint as="offset" />
          </mxGeometry>
        </mxCell>
        <mxCell id="y8QlMJmACyyWZ1Otbw8n-10" value="Apakah Role Admin?" style="rhombus;whiteSpace=wrap;html=1;" parent="1" vertex="1">
          <mxGeometry x="510" y="1530" width="80" height="80" as="geometry" />
        </mxCell>
        <mxCell id="kNQjkKz1zrJibbZgdizP-32" style="edgeStyle=orthogonalEdgeStyle;rounded=0;orthogonalLoop=1;jettySize=auto;html=1;exitX=0;exitY=0.5;exitDx=0;exitDy=0;" parent="1" source="y8QlMJmACyyWZ1Otbw8n-11" edge="1">
          <mxGeometry relative="1" as="geometry">
            <mxPoint x="-290" y="2350" as="targetPoint" />
            <Array as="points">
              <mxPoint x="-560" y="1440" />
              <mxPoint x="-560" y="2350" />
            </Array>
          </mxGeometry>
        </mxCell>
        <mxCell id="y8QlMJmACyyWZ1Otbw8n-11" value="Role anda tidak valid" style="shape=parallelogram;perimeter=parallelogramPerimeter;whiteSpace=wrap;html=1;fixedSize=1;" parent="1" vertex="1">
          <mxGeometry x="20" y="1410" width="120" height="60" as="geometry" />
        </mxCell>
        <mxCell id="cCSl2PbsVjO9J-iAaZzi-3" style="edgeStyle=orthogonalEdgeStyle;rounded=0;orthogonalLoop=1;jettySize=auto;html=1;exitX=0.5;exitY=1;exitDx=0;exitDy=0;entryX=0.5;entryY=0;entryDx=0;entryDy=0;" parent="1" source="cCSl2PbsVjO9J-iAaZzi-1" target="y8QlMJmACyyWZ1Otbw8n-7" edge="1">
          <mxGeometry relative="1" as="geometry" />
        </mxCell>
        <mxCell id="cCSl2PbsVjO9J-iAaZzi-1" value="" style="verticalLabelPosition=bottom;verticalAlign=top;html=1;shape=process;whiteSpace=wrap;rounded=1;size=0.14;arcSize=6;" parent="1" vertex="1">
          <mxGeometry x="260" y="1290" width="100" height="60" as="geometry" />
        </mxCell>
        <mxCell id="cCSl2PbsVjO9J-iAaZzi-2" value="Log In" style="text;html=1;align=center;verticalAlign=middle;resizable=0;points=[];autosize=1;strokeColor=none;fillColor=none;" parent="1" vertex="1">
          <mxGeometry x="280" y="1305" width="60" height="30" as="geometry" />
        </mxCell>
        <mxCell id="T8Nnsf4TSrUR1Zam3K_f-2" value="" style="edgeStyle=orthogonalEdgeStyle;rounded=0;orthogonalLoop=1;jettySize=auto;html=1;" parent="1" source="HHmb1HOGNeSiKwXKdqUK-2" target="T8Nnsf4TSrUR1Zam3K_f-1" edge="1">
          <mxGeometry relative="1" as="geometry" />
        </mxCell>
        <mxCell id="HHmb1HOGNeSiKwXKdqUK-2" value="Admin Menu" style="rounded=1;whiteSpace=wrap;html=1;" parent="1" vertex="1">
          <mxGeometry x="710" y="1620" width="107.15" height="50" as="geometry" />
        </mxCell>
        <mxCell id="yIXj1O7gX2cQPtZsv30H-2" value="" style="edgeStyle=orthogonalEdgeStyle;rounded=0;orthogonalLoop=1;jettySize=auto;html=1;" parent="1" source="T8Nnsf4TSrUR1Zam3K_f-1" edge="1">
          <mxGeometry relative="1" as="geometry">
            <mxPoint x="980" y="1850" as="targetPoint" />
          </mxGeometry>
        </mxCell>
        <mxCell id="yIXj1O7gX2cQPtZsv30H-4" value="True" style="edgeLabel;html=1;align=center;verticalAlign=middle;resizable=0;points=[];" parent="yIXj1O7gX2cQPtZsv30H-2" vertex="1" connectable="0">
          <mxGeometry x="-0.3334" relative="1" as="geometry">
            <mxPoint as="offset" />
          </mxGeometry>
        </mxCell>
        <mxCell id="yIXj1O7gX2cQPtZsv30H-8" value="" style="edgeStyle=orthogonalEdgeStyle;rounded=0;orthogonalLoop=1;jettySize=auto;html=1;" parent="1" source="T8Nnsf4TSrUR1Zam3K_f-1" target="yIXj1O7gX2cQPtZsv30H-7" edge="1">
          <mxGeometry relative="1" as="geometry" />
        </mxCell>
        <mxCell id="yIXj1O7gX2cQPtZsv30H-9" value="False" style="edgeLabel;html=1;align=center;verticalAlign=middle;resizable=0;points=[];" parent="yIXj1O7gX2cQPtZsv30H-8" vertex="1" connectable="0">
          <mxGeometry x="-0.3228" y="1" relative="1" as="geometry">
            <mxPoint as="offset" />
          </mxGeometry>
        </mxCell>
        <mxCell id="T8Nnsf4TSrUR1Zam3K_f-1" value="Apakah Admin ingin Menampilkan Menu?" style="rhombus;whiteSpace=wrap;html=1;rounded=1;" parent="1" vertex="1">
          <mxGeometry x="716.79" y="1735" width="93.58" height="105" as="geometry" />
        </mxCell>
        <mxCell id="oP2JBPMC7WRhOAcvdhTb-6" style="edgeStyle=orthogonalEdgeStyle;rounded=0;orthogonalLoop=1;jettySize=auto;html=1;exitX=1.004;exitY=0.554;exitDx=0;exitDy=0;exitPerimeter=0;" parent="1" source="yIXj1O7gX2cQPtZsv30H-6" edge="1">
          <mxGeometry relative="1" as="geometry">
            <mxPoint x="1121" y="1882" as="targetPoint" />
          </mxGeometry>
        </mxCell>
        <mxCell id="yIXj1O7gX2cQPtZsv30H-5" value="" style="verticalLabelPosition=bottom;verticalAlign=top;html=1;shape=process;whiteSpace=wrap;rounded=1;size=0.2;arcSize=0;" parent="1" vertex="1">
          <mxGeometry x="947.15" y="1850" width="100" height="60" as="geometry" />
        </mxCell>
        <mxCell id="yIXj1O7gX2cQPtZsv30H-6" value="&lt;font style=&quot;font-size: 10px;&quot;&gt;&amp;nbsp;Tampilkan Menu&lt;/font&gt;" style="text;html=1;align=center;verticalAlign=middle;resizable=0;points=[];autosize=1;strokeColor=none;fillColor=none;" parent="1" vertex="1">
          <mxGeometry x="947.15" y="1865" width="100" height="30" as="geometry" />
        </mxCell>
        <mxCell id="aPEvhyOMEnFDKtltxqxN-6" style="edgeStyle=orthogonalEdgeStyle;rounded=0;orthogonalLoop=1;jettySize=auto;html=1;exitX=1;exitY=0.5;exitDx=0;exitDy=0;entryX=0.5;entryY=0;entryDx=0;entryDy=0;" parent="1" source="yIXj1O7gX2cQPtZsv30H-7" target="aPEvhyOMEnFDKtltxqxN-2" edge="1">
          <mxGeometry relative="1" as="geometry" />
        </mxCell>
        <mxCell id="aPEvhyOMEnFDKtltxqxN-7" value="True" style="edgeLabel;html=1;align=center;verticalAlign=middle;resizable=0;points=[];" parent="aPEvhyOMEnFDKtltxqxN-6" vertex="1" connectable="0">
          <mxGeometry x="-0.2658" y="-1" relative="1" as="geometry">
            <mxPoint as="offset" />
          </mxGeometry>
        </mxCell>
        <mxCell id="5i6xEJ5iX1_fiangv75G-4" value="" style="edgeStyle=orthogonalEdgeStyle;rounded=0;orthogonalLoop=1;jettySize=auto;html=1;" parent="1" source="yIXj1O7gX2cQPtZsv30H-7" target="5i6xEJ5iX1_fiangv75G-3" edge="1">
          <mxGeometry relative="1" as="geometry" />
        </mxCell>
        <mxCell id="5i6xEJ5iX1_fiangv75G-5" value="False" style="edgeLabel;html=1;align=center;verticalAlign=middle;resizable=0;points=[];" parent="5i6xEJ5iX1_fiangv75G-4" vertex="1" connectable="0">
          <mxGeometry x="-0.3164" y="1" relative="1" as="geometry">
            <mxPoint as="offset" />
          </mxGeometry>
        </mxCell>
        <mxCell id="yIXj1O7gX2cQPtZsv30H-7" value="Apakah Admin ingin Menambahkan menu?" style="rhombus;whiteSpace=wrap;html=1;rounded=1;" parent="1" vertex="1">
          <mxGeometry x="550" y="1850" width="80" height="80" as="geometry" />
        </mxCell>
        <mxCell id="aPEvhyOMEnFDKtltxqxN-1" value="" style="edgeStyle=orthogonalEdgeStyle;rounded=0;orthogonalLoop=1;jettySize=auto;html=1;" parent="1" source="aPEvhyOMEnFDKtltxqxN-2" target="aPEvhyOMEnFDKtltxqxN-5" edge="1">
          <mxGeometry relative="1" as="geometry" />
        </mxCell>
        <mxCell id="aPEvhyOMEnFDKtltxqxN-2" value="Input&amp;nbsp;&lt;div&gt;Nama Menu,Harga,Stok&lt;/div&gt;" style="shape=parallelogram;perimeter=parallelogramPerimeter;whiteSpace=wrap;html=1;fixedSize=1;" parent="1" vertex="1">
          <mxGeometry x="697.15" y="1920" width="130" height="70" as="geometry" />
        </mxCell>
        <mxCell id="aPEvhyOMEnFDKtltxqxN-3" value="False" style="edgeLabel;html=1;align=center;verticalAlign=middle;resizable=0;points=[];" parent="1" vertex="1" connectable="0">
          <mxGeometry x="667.0005860805862" y="2084.4615384615386" as="geometry" />
        </mxCell>
        <mxCell id="aPEvhyOMEnFDKtltxqxN-4" value="True" style="edgeLabel;html=1;align=center;verticalAlign=middle;resizable=0;points=[];" parent="1" vertex="1" connectable="0">
          <mxGeometry x="879.7676923076918" y="2082.5" as="geometry">
            <mxPoint x="-9" y="-1" as="offset" />
          </mxGeometry>
        </mxCell>
        <mxCell id="jnVnXVY-JLAPIRjJoI79-2" style="edgeStyle=orthogonalEdgeStyle;rounded=0;orthogonalLoop=1;jettySize=auto;html=1;exitX=0;exitY=0.5;exitDx=0;exitDy=0;entryX=0.5;entryY=0;entryDx=0;entryDy=0;" parent="1" source="aPEvhyOMEnFDKtltxqxN-5" target="jnVnXVY-JLAPIRjJoI79-1" edge="1">
          <mxGeometry relative="1" as="geometry" />
        </mxCell>
        <mxCell id="5i6xEJ5iX1_fiangv75G-2" style="edgeStyle=orthogonalEdgeStyle;rounded=0;orthogonalLoop=1;jettySize=auto;html=1;exitX=1;exitY=0.5;exitDx=0;exitDy=0;entryX=0.5;entryY=0;entryDx=0;entryDy=0;" parent="1" source="aPEvhyOMEnFDKtltxqxN-5" target="5i6xEJ5iX1_fiangv75G-1" edge="1">
          <mxGeometry relative="1" as="geometry" />
        </mxCell>
        <mxCell id="aPEvhyOMEnFDKtltxqxN-5" value="Apakah Harga dan Stok Valid?" style="rhombus;whiteSpace=wrap;html=1;" parent="1" vertex="1">
          <mxGeometry x="704.42" y="2030" width="115" height="105" as="geometry" />
        </mxCell>
        <mxCell id="oP2JBPMC7WRhOAcvdhTb-4" style="edgeStyle=orthogonalEdgeStyle;rounded=0;orthogonalLoop=1;jettySize=auto;html=1;exitX=0.5;exitY=1;exitDx=0;exitDy=0;" parent="1" source="jnVnXVY-JLAPIRjJoI79-1" edge="1">
          <mxGeometry relative="1" as="geometry">
            <mxPoint x="606.6363636363635" y="2310" as="targetPoint" />
          </mxGeometry>
        </mxCell>
        <mxCell id="jnVnXVY-JLAPIRjJoI79-1" value="Display Invalid Input Massage" style="rounded=1;whiteSpace=wrap;html=1;" parent="1" vertex="1">
          <mxGeometry x="547" y="2150" width="120" height="60" as="geometry" />
        </mxCell>
        <mxCell id="oP2JBPMC7WRhOAcvdhTb-5" style="edgeStyle=orthogonalEdgeStyle;rounded=0;orthogonalLoop=1;jettySize=auto;html=1;exitX=0.5;exitY=1;exitDx=0;exitDy=0;" parent="1" source="5i6xEJ5iX1_fiangv75G-1" edge="1">
          <mxGeometry relative="1" as="geometry">
            <mxPoint x="929.363636363636" y="2310" as="targetPoint" />
          </mxGeometry>
        </mxCell>
        <mxCell id="5i6xEJ5iX1_fiangv75G-1" value="Tambah Menu Berhasil" style="rounded=1;whiteSpace=wrap;html=1;" parent="1" vertex="1">
          <mxGeometry x="869.77" y="2150" width="120" height="60" as="geometry" />
        </mxCell>
        <mxCell id="h46ociLB0fB1WfXxwHM4-2" value="" style="edgeStyle=orthogonalEdgeStyle;rounded=0;orthogonalLoop=1;jettySize=auto;html=1;" parent="1" source="5i6xEJ5iX1_fiangv75G-3" target="h46ociLB0fB1WfXxwHM4-1" edge="1">
          <mxGeometry relative="1" as="geometry" />
        </mxCell>
        <mxCell id="h46ociLB0fB1WfXxwHM4-3" value="True" style="edgeLabel;html=1;align=center;verticalAlign=middle;resizable=0;points=[];" parent="h46ociLB0fB1WfXxwHM4-2" vertex="1" connectable="0">
          <mxGeometry x="-0.4255" y="-1" relative="1" as="geometry">
            <mxPoint as="offset" />
          </mxGeometry>
        </mxCell>
        <mxCell id="0JKajg4aZFu4MFfaW3gB-4" value="" style="edgeStyle=orthogonalEdgeStyle;rounded=0;orthogonalLoop=1;jettySize=auto;html=1;" parent="1" source="5i6xEJ5iX1_fiangv75G-3" target="0JKajg4aZFu4MFfaW3gB-3" edge="1">
          <mxGeometry relative="1" as="geometry" />
        </mxCell>
        <mxCell id="0JKajg4aZFu4MFfaW3gB-5" value="False" style="edgeLabel;html=1;align=center;verticalAlign=middle;resizable=0;points=[];" parent="0JKajg4aZFu4MFfaW3gB-4" vertex="1" connectable="0">
          <mxGeometry x="-0.3507" relative="1" as="geometry">
            <mxPoint as="offset" />
          </mxGeometry>
        </mxCell>
        <mxCell id="5i6xEJ5iX1_fiangv75G-3" value="Apakah Admin ingin Menghapus menu?" style="rhombus;whiteSpace=wrap;html=1;rounded=1;" parent="1" vertex="1">
          <mxGeometry x="310" y="1950" width="80" height="80" as="geometry" />
        </mxCell>
        <mxCell id="0JKajg4aZFu4MFfaW3gB-2" value="" style="edgeStyle=orthogonalEdgeStyle;rounded=0;orthogonalLoop=1;jettySize=auto;html=1;entryX=0.61;entryY=0.043;entryDx=0;entryDy=0;entryPerimeter=0;" parent="1" source="h46ociLB0fB1WfXxwHM4-1" target="0JKajg4aZFu4MFfaW3gB-1" edge="1">
          <mxGeometry relative="1" as="geometry" />
        </mxCell>
        <mxCell id="h46ociLB0fB1WfXxwHM4-1" value="Pilih Menu yang Ingin di hapus" style="rounded=1;whiteSpace=wrap;html=1;" parent="1" vertex="1">
          <mxGeometry x="414" y="2040" width="120" height="60" as="geometry" />
        </mxCell>
        <mxCell id="oP2JBPMC7WRhOAcvdhTb-3" style="edgeStyle=orthogonalEdgeStyle;rounded=0;orthogonalLoop=1;jettySize=auto;html=1;exitX=0.5;exitY=1;exitDx=0;exitDy=0;" parent="1" source="0JKajg4aZFu4MFfaW3gB-1" edge="1">
          <mxGeometry relative="1" as="geometry">
            <mxPoint x="460.272727272727" y="2310" as="targetPoint" />
          </mxGeometry>
        </mxCell>
        <mxCell id="0JKajg4aZFu4MFfaW3gB-1" value="Hapus Menu Item yang di Pilih" style="rounded=1;whiteSpace=wrap;html=1;" parent="1" vertex="1">
          <mxGeometry x="400" y="2135" width="120" height="60" as="geometry" />
        </mxCell>
        <mxCell id="bG8fAs1FAnhKQdH93MxC-2" value="" style="edgeStyle=orthogonalEdgeStyle;rounded=0;orthogonalLoop=1;jettySize=auto;html=1;" parent="1" source="0JKajg4aZFu4MFfaW3gB-3" edge="1">
          <mxGeometry relative="1" as="geometry">
            <mxPoint x="290" y="2130" as="targetPoint" />
          </mxGeometry>
        </mxCell>
        <mxCell id="bG8fAs1FAnhKQdH93MxC-5" value="True" style="edgeLabel;html=1;align=center;verticalAlign=middle;resizable=0;points=[];" parent="bG8fAs1FAnhKQdH93MxC-2" vertex="1" connectable="0">
          <mxGeometry x="-0.2337" relative="1" as="geometry">
            <mxPoint as="offset" />
          </mxGeometry>
        </mxCell>
        <mxCell id="bG8fAs1FAnhKQdH93MxC-7" value="" style="edgeStyle=orthogonalEdgeStyle;rounded=0;orthogonalLoop=1;jettySize=auto;html=1;" parent="1" source="0JKajg4aZFu4MFfaW3gB-3" target="bG8fAs1FAnhKQdH93MxC-6" edge="1">
          <mxGeometry relative="1" as="geometry" />
        </mxCell>
        <mxCell id="0JKajg4aZFu4MFfaW3gB-3" value="Apakah Admin ingin Menghitung Stock menu?" style="rhombus;whiteSpace=wrap;html=1;rounded=1;" parent="1" vertex="1">
          <mxGeometry x="140" y="2042.5" width="80" height="80" as="geometry" />
        </mxCell>
        <mxCell id="oP2JBPMC7WRhOAcvdhTb-2" style="edgeStyle=orthogonalEdgeStyle;rounded=0;orthogonalLoop=1;jettySize=auto;html=1;exitX=0.5;exitY=1;exitDx=0;exitDy=0;" parent="1" source="bG8fAs1FAnhKQdH93MxC-3" edge="1">
          <mxGeometry relative="1" as="geometry">
            <mxPoint x="290.272727272727" y="2310" as="targetPoint" />
          </mxGeometry>
        </mxCell>
        <mxCell id="bG8fAs1FAnhKQdH93MxC-3" value="" style="verticalLabelPosition=bottom;verticalAlign=top;html=1;shape=process;whiteSpace=wrap;rounded=1;size=0.2;arcSize=0;" parent="1" vertex="1">
          <mxGeometry x="240" y="2135" width="100" height="60" as="geometry" />
        </mxCell>
        <mxCell id="bG8fAs1FAnhKQdH93MxC-4" value="&amp;nbsp;Hitung Total Stok" style="text;html=1;align=center;verticalAlign=middle;resizable=0;points=[];autosize=1;strokeColor=none;fillColor=none;" parent="1" vertex="1">
          <mxGeometry x="230" y="2150" width="120" height="30" as="geometry" />
        </mxCell>
        <mxCell id="bG8fAs1FAnhKQdH93MxC-10" style="edgeStyle=orthogonalEdgeStyle;rounded=0;orthogonalLoop=1;jettySize=auto;html=1;exitX=1;exitY=0.5;exitDx=0;exitDy=0;" parent="1" source="bG8fAs1FAnhKQdH93MxC-6" target="bG8fAs1FAnhKQdH93MxC-8" edge="1">
          <mxGeometry relative="1" as="geometry" />
        </mxCell>
        <mxCell id="bG8fAs1FAnhKQdH93MxC-11" value="True" style="edgeLabel;html=1;align=center;verticalAlign=middle;resizable=0;points=[];" parent="bG8fAs1FAnhKQdH93MxC-10" vertex="1" connectable="0">
          <mxGeometry x="-0.2176" y="-3" relative="1" as="geometry">
            <mxPoint as="offset" />
          </mxGeometry>
        </mxCell>
        <mxCell id="bG8fAs1FAnhKQdH93MxC-13" value="" style="edgeStyle=orthogonalEdgeStyle;rounded=0;orthogonalLoop=1;jettySize=auto;html=1;" parent="1" source="bG8fAs1FAnhKQdH93MxC-6" target="bG8fAs1FAnhKQdH93MxC-12" edge="1">
          <mxGeometry relative="1" as="geometry" />
        </mxCell>
        <mxCell id="bG8fAs1FAnhKQdH93MxC-14" value="False&amp;nbsp;" style="edgeLabel;html=1;align=center;verticalAlign=middle;resizable=0;points=[];" parent="bG8fAs1FAnhKQdH93MxC-13" vertex="1" connectable="0">
          <mxGeometry x="-0.4399" y="-1" relative="1" as="geometry">
            <mxPoint as="offset" />
          </mxGeometry>
        </mxCell>
        <mxCell id="bG8fAs1FAnhKQdH93MxC-6" value="Apakah Admin ingin&amp;nbsp;&lt;div&gt;Log Out?&lt;/div&gt;" style="rhombus;whiteSpace=wrap;html=1;rounded=1;" parent="1" vertex="1">
          <mxGeometry x="20" y="2140" width="80" height="80" as="geometry" />
        </mxCell>
        <mxCell id="oP2JBPMC7WRhOAcvdhTb-7" style="edgeStyle=orthogonalEdgeStyle;rounded=0;orthogonalLoop=1;jettySize=auto;html=1;exitX=0.5;exitY=1;exitDx=0;exitDy=0;entryX=1;entryY=0.5;entryDx=0;entryDy=0;" parent="1" source="bG8fAs1FAnhKQdH93MxC-8" target="ZT4bAi9f0VDINfJcFxNP-5" edge="1">
          <mxGeometry relative="1" as="geometry">
            <Array as="points">
              <mxPoint x="160" y="2350" />
              <mxPoint x="1420" y="2350" />
              <mxPoint x="1420" y="800" />
            </Array>
          </mxGeometry>
        </mxCell>
        <mxCell id="bG8fAs1FAnhKQdH93MxC-8" value="" style="verticalLabelPosition=bottom;verticalAlign=top;html=1;shape=process;whiteSpace=wrap;rounded=1;size=0.2;arcSize=0;" parent="1" vertex="1">
          <mxGeometry x="110" y="2230" width="100" height="60" as="geometry" />
        </mxCell>
        <mxCell id="bG8fAs1FAnhKQdH93MxC-9" value="Log Out" style="text;html=1;align=center;verticalAlign=middle;resizable=0;points=[];autosize=1;strokeColor=none;fillColor=none;" parent="1" vertex="1">
          <mxGeometry x="125" y="2245" width="70" height="30" as="geometry" />
        </mxCell>
        <mxCell id="oP2JBPMC7WRhOAcvdhTb-1" style="edgeStyle=orthogonalEdgeStyle;rounded=0;orthogonalLoop=1;jettySize=auto;html=1;exitX=0.5;exitY=1;exitDx=0;exitDy=0;entryX=1;entryY=0.5;entryDx=0;entryDy=0;" parent="1" source="bG8fAs1FAnhKQdH93MxC-12" target="HHmb1HOGNeSiKwXKdqUK-2" edge="1">
          <mxGeometry relative="1" as="geometry">
            <mxPoint x="1163.6363636363637" y="2380" as="targetPoint" />
            <Array as="points">
              <mxPoint x="-70" y="2310" />
              <mxPoint x="1120" y="2310" />
              <mxPoint x="1120" y="1645" />
            </Array>
          </mxGeometry>
        </mxCell>
        <mxCell id="bG8fAs1FAnhKQdH93MxC-12" value="Output&lt;div&gt;Pilihan Anda Tidak Valid&lt;/div&gt;" style="shape=parallelogram;perimeter=parallelogramPerimeter;whiteSpace=wrap;html=1;fixedSize=1;rounded=1;" parent="1" vertex="1">
          <mxGeometry x="-130" y="2230" width="120" height="60" as="geometry" />
        </mxCell>
        <mxCell id="3Ml0xzhcja7XqqaQdOc2-4" value="" style="edgeStyle=orthogonalEdgeStyle;rounded=0;orthogonalLoop=1;jettySize=auto;html=1;" parent="1" source="3Ml0xzhcja7XqqaQdOc2-1" target="3Ml0xzhcja7XqqaQdOc2-3" edge="1">
          <mxGeometry relative="1" as="geometry" />
        </mxCell>
        <mxCell id="3Ml0xzhcja7XqqaQdOc2-1" value="Pembeli Menu" style="rounded=1;whiteSpace=wrap;html=1;" parent="1" vertex="1">
          <mxGeometry x="290" y="1615" width="120" height="60" as="geometry" />
        </mxCell>
        <mxCell id="UvC3DkKO6kLdeP9DIWmX-3" style="edgeStyle=orthogonalEdgeStyle;rounded=0;orthogonalLoop=1;jettySize=auto;html=1;exitX=1;exitY=0.5;exitDx=0;exitDy=0;entryX=0.5;entryY=0;entryDx=0;entryDy=0;" parent="1" source="3Ml0xzhcja7XqqaQdOc2-3" target="UvC3DkKO6kLdeP9DIWmX-1" edge="1">
          <mxGeometry relative="1" as="geometry" />
        </mxCell>
        <mxCell id="UvC3DkKO6kLdeP9DIWmX-4" value="True" style="edgeLabel;html=1;align=center;verticalAlign=middle;resizable=0;points=[];" parent="UvC3DkKO6kLdeP9DIWmX-3" vertex="1" connectable="0">
          <mxGeometry x="-0.3958" y="-2" relative="1" as="geometry">
            <mxPoint as="offset" />
          </mxGeometry>
        </mxCell>
        <mxCell id="UvC3DkKO6kLdeP9DIWmX-6" value="" style="edgeStyle=orthogonalEdgeStyle;rounded=0;orthogonalLoop=1;jettySize=auto;html=1;" parent="1" source="3Ml0xzhcja7XqqaQdOc2-3" target="UvC3DkKO6kLdeP9DIWmX-5" edge="1">
          <mxGeometry relative="1" as="geometry" />
        </mxCell>
        <mxCell id="kNQjkKz1zrJibbZgdizP-6" value="False" style="edgeLabel;html=1;align=center;verticalAlign=middle;resizable=0;points=[];" parent="UvC3DkKO6kLdeP9DIWmX-6" vertex="1" connectable="0">
          <mxGeometry x="-0.2582" y="1" relative="1" as="geometry">
            <mxPoint as="offset" />
          </mxGeometry>
        </mxCell>
        <mxCell id="3Ml0xzhcja7XqqaQdOc2-3" value="Apakah Pembeli ingin Menampilkan Menu?" style="rhombus;whiteSpace=wrap;html=1;rounded=1;arcSize=17;" parent="1" vertex="1">
          <mxGeometry x="10" y="1700" width="80" height="80" as="geometry" />
        </mxCell>
        <mxCell id="kNQjkKz1zrJibbZgdizP-19" style="edgeStyle=orthogonalEdgeStyle;rounded=0;orthogonalLoop=1;jettySize=auto;html=1;exitX=0.5;exitY=1;exitDx=0;exitDy=0;" parent="1" source="UvC3DkKO6kLdeP9DIWmX-1" edge="1">
          <mxGeometry relative="1" as="geometry">
            <mxPoint x="170" y="1920" as="targetPoint" />
          </mxGeometry>
        </mxCell>
        <mxCell id="UvC3DkKO6kLdeP9DIWmX-1" value="" style="verticalLabelPosition=bottom;verticalAlign=top;html=1;shape=process;whiteSpace=wrap;rounded=1;size=0.14;arcSize=6;" parent="1" vertex="1">
          <mxGeometry x="120" y="1790" width="100" height="60" as="geometry" />
        </mxCell>
        <mxCell id="UvC3DkKO6kLdeP9DIWmX-2" value="Tampilkan Menu" style="text;html=1;align=center;verticalAlign=middle;resizable=0;points=[];autosize=1;strokeColor=none;fillColor=none;" parent="1" vertex="1">
          <mxGeometry x="115" y="1810" width="110" height="30" as="geometry" />
        </mxCell>
        <mxCell id="kNQjkKz1zrJibbZgdizP-4" style="edgeStyle=orthogonalEdgeStyle;rounded=0;orthogonalLoop=1;jettySize=auto;html=1;exitX=1;exitY=0.5;exitDx=0;exitDy=0;entryX=0.5;entryY=0;entryDx=0;entryDy=0;" parent="1" source="UvC3DkKO6kLdeP9DIWmX-5" target="kNQjkKz1zrJibbZgdizP-2" edge="1">
          <mxGeometry relative="1" as="geometry" />
        </mxCell>
        <mxCell id="kNQjkKz1zrJibbZgdizP-5" value="True" style="edgeLabel;html=1;align=center;verticalAlign=middle;resizable=0;points=[];" parent="kNQjkKz1zrJibbZgdizP-4" vertex="1" connectable="0">
          <mxGeometry x="-0.367" y="-1" relative="1" as="geometry">
            <mxPoint as="offset" />
          </mxGeometry>
        </mxCell>
        <mxCell id="kNQjkKz1zrJibbZgdizP-8" value="" style="edgeStyle=orthogonalEdgeStyle;rounded=0;orthogonalLoop=1;jettySize=auto;html=1;" parent="1" source="UvC3DkKO6kLdeP9DIWmX-5" target="kNQjkKz1zrJibbZgdizP-7" edge="1">
          <mxGeometry relative="1" as="geometry" />
        </mxCell>
        <mxCell id="kNQjkKz1zrJibbZgdizP-17" value="False" style="edgeLabel;html=1;align=center;verticalAlign=middle;resizable=0;points=[];" parent="kNQjkKz1zrJibbZgdizP-8" vertex="1" connectable="0">
          <mxGeometry x="-0.2724" y="-2" relative="1" as="geometry">
            <mxPoint x="1" as="offset" />
          </mxGeometry>
        </mxCell>
        <mxCell id="UvC3DkKO6kLdeP9DIWmX-5" value="Apakah Pembeli ingin Membeli Menu?" style="rhombus;whiteSpace=wrap;html=1;rounded=1;arcSize=17;" parent="1" vertex="1">
          <mxGeometry x="-249" y="1790" width="80" height="80" as="geometry" />
        </mxCell>
        <mxCell id="kNQjkKz1zrJibbZgdizP-1" value="" style="edgeStyle=orthogonalEdgeStyle;rounded=0;orthogonalLoop=1;jettySize=auto;html=1;" parent="1" source="kNQjkKz1zrJibbZgdizP-2" target="kNQjkKz1zrJibbZgdizP-3" edge="1">
          <mxGeometry relative="1" as="geometry" />
        </mxCell>
        <mxCell id="kNQjkKz1zrJibbZgdizP-2" value="Input&amp;nbsp;&lt;div&gt;Nama Barang dan Jumlah yang ingin Di beli&lt;/div&gt;" style="shape=parallelogram;perimeter=parallelogramPerimeter;whiteSpace=wrap;html=1;fixedSize=1;" parent="1" vertex="1">
          <mxGeometry x="-154" y="1860" width="135" height="70" as="geometry" />
        </mxCell>
        <mxCell id="kNQjkKz1zrJibbZgdizP-3" value="Pembelian Berhasil" style="whiteSpace=wrap;html=1;" parent="1" vertex="1">
          <mxGeometry x="-146.5" y="1990" width="120" height="60" as="geometry" />
        </mxCell>
        <mxCell id="kNQjkKz1zrJibbZgdizP-11" style="edgeStyle=orthogonalEdgeStyle;rounded=0;orthogonalLoop=1;jettySize=auto;html=1;exitX=1;exitY=0.5;exitDx=0;exitDy=0;entryX=0.5;entryY=0;entryDx=0;entryDy=0;" parent="1" source="kNQjkKz1zrJibbZgdizP-7" target="kNQjkKz1zrJibbZgdizP-9" edge="1">
          <mxGeometry relative="1" as="geometry" />
        </mxCell>
        <mxCell id="kNQjkKz1zrJibbZgdizP-16" value="True" style="edgeLabel;html=1;align=center;verticalAlign=middle;resizable=0;points=[];" parent="kNQjkKz1zrJibbZgdizP-11" vertex="1" connectable="0">
          <mxGeometry x="-0.257" y="-2" relative="1" as="geometry">
            <mxPoint as="offset" />
          </mxGeometry>
        </mxCell>
        <mxCell id="kNQjkKz1zrJibbZgdizP-14" style="edgeStyle=orthogonalEdgeStyle;rounded=0;orthogonalLoop=1;jettySize=auto;html=1;exitX=0;exitY=0.5;exitDx=0;exitDy=0;entryX=0.5;entryY=0;entryDx=0;entryDy=0;" parent="1" source="kNQjkKz1zrJibbZgdizP-7" target="kNQjkKz1zrJibbZgdizP-13" edge="1">
          <mxGeometry relative="1" as="geometry" />
        </mxCell>
        <mxCell id="kNQjkKz1zrJibbZgdizP-15" value="False" style="edgeLabel;html=1;align=center;verticalAlign=middle;resizable=0;points=[];" parent="kNQjkKz1zrJibbZgdizP-14" vertex="1" connectable="0">
          <mxGeometry x="-0.2085" relative="1" as="geometry">
            <mxPoint as="offset" />
          </mxGeometry>
        </mxCell>
        <mxCell id="kNQjkKz1zrJibbZgdizP-7" value="Apakah Pembeli ingin LogOut?" style="rhombus;whiteSpace=wrap;html=1;rounded=1;arcSize=17;" parent="1" vertex="1">
          <mxGeometry x="-414" y="1885" width="80" height="80" as="geometry" />
        </mxCell>
        <mxCell id="kNQjkKz1zrJibbZgdizP-12" style="edgeStyle=orthogonalEdgeStyle;rounded=0;orthogonalLoop=1;jettySize=auto;html=1;exitX=0.5;exitY=1;exitDx=0;exitDy=0;" parent="1" source="kNQjkKz1zrJibbZgdizP-9" edge="1">
          <mxGeometry relative="1" as="geometry">
            <mxPoint x="160" y="2350" as="targetPoint" />
            <Array as="points">
              <mxPoint x="-200" y="2350" />
              <mxPoint x="150" y="2350" />
            </Array>
          </mxGeometry>
        </mxCell>
        <mxCell id="kNQjkKz1zrJibbZgdizP-9" value="" style="verticalLabelPosition=bottom;verticalAlign=top;html=1;shape=process;whiteSpace=wrap;rounded=1;size=0.2;arcSize=0;" parent="1" vertex="1">
          <mxGeometry x="-334" y="1965" width="100" height="60" as="geometry" />
        </mxCell>
        <mxCell id="kNQjkKz1zrJibbZgdizP-10" value="Log Out" style="text;html=1;align=center;verticalAlign=middle;resizable=0;points=[];autosize=1;strokeColor=none;fillColor=none;" parent="1" vertex="1">
          <mxGeometry x="-319" y="1980" width="70" height="30" as="geometry" />
        </mxCell>
        <mxCell id="kNQjkKz1zrJibbZgdizP-18" style="edgeStyle=orthogonalEdgeStyle;rounded=0;orthogonalLoop=1;jettySize=auto;html=1;exitX=0.5;exitY=1;exitDx=0;exitDy=0;entryX=0.25;entryY=1;entryDx=0;entryDy=0;" parent="1" source="kNQjkKz1zrJibbZgdizP-13" target="3Ml0xzhcja7XqqaQdOc2-1" edge="1">
          <mxGeometry relative="1" as="geometry">
            <Array as="points">
              <mxPoint x="-480" y="2100" />
              <mxPoint x="20" y="2100" />
              <mxPoint x="20" y="1930" />
              <mxPoint x="320" y="1930" />
            </Array>
          </mxGeometry>
        </mxCell>
        <mxCell id="kNQjkKz1zrJibbZgdizP-13" value="Output&lt;div&gt;Pilihan Anda Tidak Valid&lt;/div&gt;" style="shape=parallelogram;perimeter=parallelogramPerimeter;whiteSpace=wrap;html=1;fixedSize=1;rounded=1;" parent="1" vertex="1">
          <mxGeometry x="-540" y="1965" width="120" height="60" as="geometry" />
        </mxCell>
        <mxCell id="kNQjkKz1zrJibbZgdizP-24" value="" style="edgeStyle=orthogonalEdgeStyle;rounded=0;orthogonalLoop=1;jettySize=auto;html=1;" parent="1" source="kNQjkKz1zrJibbZgdizP-20" target="kNQjkKz1zrJibbZgdizP-23" edge="1">
          <mxGeometry relative="1" as="geometry" />
        </mxCell>
        <mxCell id="kNQjkKz1zrJibbZgdizP-26" value="True" style="edgeLabel;html=1;align=center;verticalAlign=middle;resizable=0;points=[];" parent="kNQjkKz1zrJibbZgdizP-24" vertex="1" connectable="0">
          <mxGeometry x="-0.5067" relative="1" as="geometry">
            <mxPoint as="offset" />
          </mxGeometry>
        </mxCell>
        <mxCell id="kNQjkKz1zrJibbZgdizP-28" value="" style="edgeStyle=orthogonalEdgeStyle;rounded=0;orthogonalLoop=1;jettySize=auto;html=1;" parent="1" source="kNQjkKz1zrJibbZgdizP-20" target="kNQjkKz1zrJibbZgdizP-27" edge="1">
          <mxGeometry relative="1" as="geometry" />
        </mxCell>
        <mxCell id="kNQjkKz1zrJibbZgdizP-29" value="False" style="edgeLabel;html=1;align=center;verticalAlign=middle;resizable=0;points=[];" parent="kNQjkKz1zrJibbZgdizP-28" vertex="1" connectable="0">
          <mxGeometry x="-0.5387" y="3" relative="1" as="geometry">
            <mxPoint as="offset" />
          </mxGeometry>
        </mxCell>
        <mxCell id="kNQjkKz1zrJibbZgdizP-20" value="Apakah User Memilih&amp;nbsp;&lt;div&gt;Log Out&lt;/div&gt;" style="rhombus;whiteSpace=wrap;html=1;" parent="1" vertex="1">
          <mxGeometry x="-920" y="1280" width="140" height="140" as="geometry" />
        </mxCell>
        <mxCell id="kNQjkKz1zrJibbZgdizP-30" style="edgeStyle=orthogonalEdgeStyle;rounded=0;orthogonalLoop=1;jettySize=auto;html=1;exitX=0.5;exitY=1;exitDx=0;exitDy=0;" parent="1" source="kNQjkKz1zrJibbZgdizP-23" target="kNQjkKz1zrJibbZgdizP-31" edge="1">
          <mxGeometry relative="1" as="geometry">
            <mxPoint x="-470" y="3276.153846153846" as="targetPoint" />
            <Array as="points">
              <mxPoint x="-690" y="2430" />
              <mxPoint x="528" y="2430" />
            </Array>
          </mxGeometry>
        </mxCell>
        <mxCell id="kNQjkKz1zrJibbZgdizP-23" value="Output&lt;div&gt;Terima Kasih Sudah Mampir Kesini&lt;/div&gt;" style="shape=parallelogram;perimeter=parallelogramPerimeter;whiteSpace=wrap;html=1;fixedSize=1;" parent="1" vertex="1">
          <mxGeometry x="-750" y="1520" width="120" height="60" as="geometry" />
        </mxCell>
        <mxCell id="kNQjkKz1zrJibbZgdizP-33" style="edgeStyle=orthogonalEdgeStyle;rounded=0;orthogonalLoop=1;jettySize=auto;html=1;exitX=0;exitY=0.75;exitDx=0;exitDy=0;entryX=0;entryY=0.5;entryDx=0;entryDy=0;" parent="1" source="kNQjkKz1zrJibbZgdizP-27" target="ZT4bAi9f0VDINfJcFxNP-5" edge="1">
          <mxGeometry relative="1" as="geometry">
            <Array as="points">
              <mxPoint x="-1130" y="1514" />
              <mxPoint x="-1130" y="800" />
            </Array>
          </mxGeometry>
        </mxCell>
        <mxCell id="kNQjkKz1zrJibbZgdizP-27" value="&lt;div&gt;Output&lt;/div&gt;Pilihan Anda Tidak Valid" style="shape=parallelogram;perimeter=parallelogramPerimeter;whiteSpace=wrap;html=1;fixedSize=1;" parent="1" vertex="1">
          <mxGeometry x="-1100" y="1470" width="120" height="60" as="geometry" />
        </mxCell>
        <mxCell id="kNQjkKz1zrJibbZgdizP-31" value="End" style="strokeWidth=2;html=1;shape=mxgraph.flowchart.start_1;whiteSpace=wrap;" parent="1" vertex="1">
          <mxGeometry x="478" y="2510.003846153846" width="100" height="60" as="geometry" />
        </mxCell>
      </root>
    </mxGraphModel>
  </diagram>
  <diagram id="aC1IdhH-Rhm1VCubTRTT" name="Tampilkan Menu">
    <mxGraphModel dx="1034" dy="458" grid="1" gridSize="10" guides="1" tooltips="1" connect="1" arrows="1" fold="1" page="1" pageScale="1" pageWidth="827" pageHeight="1169" math="0" shadow="0">
      <root>
        <mxCell id="0" />
        <mxCell id="1" parent="0" />
        <mxCell id="WDS73jg1Xp50YnJe86Si-3" value="" style="edgeStyle=orthogonalEdgeStyle;rounded=0;orthogonalLoop=1;jettySize=auto;html=1;" parent="1" source="WDS73jg1Xp50YnJe86Si-1" target="WDS73jg1Xp50YnJe86Si-2" edge="1">
          <mxGeometry relative="1" as="geometry" />
        </mxCell>
        <mxCell id="WDS73jg1Xp50YnJe86Si-1" value="Tampilkan Menu" style="strokeWidth=2;html=1;shape=mxgraph.flowchart.start_1;whiteSpace=wrap;" parent="1" vertex="1">
          <mxGeometry x="364" y="40" width="100" height="60" as="geometry" />
        </mxCell>
        <mxCell id="WDS73jg1Xp50YnJe86Si-5" value="" style="edgeStyle=orthogonalEdgeStyle;rounded=0;orthogonalLoop=1;jettySize=auto;html=1;" parent="1" source="WDS73jg1Xp50YnJe86Si-2" target="WDS73jg1Xp50YnJe86Si-4" edge="1">
          <mxGeometry relative="1" as="geometry" />
        </mxCell>
        <mxCell id="GMN3N_3CPNu_8ofVaLNI-1" value="True" style="edgeLabel;html=1;align=center;verticalAlign=middle;resizable=0;points=[];" parent="WDS73jg1Xp50YnJe86Si-5" vertex="1" connectable="0">
          <mxGeometry x="-0.1974" y="1" relative="1" as="geometry">
            <mxPoint as="offset" />
          </mxGeometry>
        </mxCell>
        <mxCell id="GMN3N_3CPNu_8ofVaLNI-3" value="" style="edgeStyle=orthogonalEdgeStyle;rounded=0;orthogonalLoop=1;jettySize=auto;html=1;" parent="1" source="WDS73jg1Xp50YnJe86Si-2" target="GMN3N_3CPNu_8ofVaLNI-2" edge="1">
          <mxGeometry relative="1" as="geometry" />
        </mxCell>
        <mxCell id="GMN3N_3CPNu_8ofVaLNI-4" value="False" style="edgeLabel;html=1;align=center;verticalAlign=middle;resizable=0;points=[];" parent="GMN3N_3CPNu_8ofVaLNI-3" vertex="1" connectable="0">
          <mxGeometry x="-0.2543" relative="1" as="geometry">
            <mxPoint as="offset" />
          </mxGeometry>
        </mxCell>
        <mxCell id="WDS73jg1Xp50YnJe86Si-2" value="Menu kosong?" style="rhombus;whiteSpace=wrap;html=1;strokeWidth=2;" parent="1" vertex="1">
          <mxGeometry x="374" y="170" width="80" height="80" as="geometry" />
        </mxCell>
        <mxCell id="WDS73jg1Xp50YnJe86Si-4" value="Output&lt;br&gt;Menu kosong" style="shape=parallelogram;perimeter=parallelogramPerimeter;whiteSpace=wrap;html=1;fixedSize=1;strokeWidth=2;" parent="1" vertex="1">
          <mxGeometry x="550" y="260" width="120" height="60" as="geometry" />
        </mxCell>
        <mxCell id="GMN3N_3CPNu_8ofVaLNI-6" value="" style="edgeStyle=orthogonalEdgeStyle;rounded=0;orthogonalLoop=1;jettySize=auto;html=1;" parent="1" source="GMN3N_3CPNu_8ofVaLNI-2" target="GMN3N_3CPNu_8ofVaLNI-5" edge="1">
          <mxGeometry relative="1" as="geometry" />
        </mxCell>
        <mxCell id="GMN3N_3CPNu_8ofVaLNI-2" value="Daftar Menu" style="whiteSpace=wrap;html=1;strokeWidth=2;" parent="1" vertex="1">
          <mxGeometry x="170" y="260" width="120" height="60" as="geometry" />
        </mxCell>
        <mxCell id="GMN3N_3CPNu_8ofVaLNI-7" style="edgeStyle=orthogonalEdgeStyle;rounded=0;orthogonalLoop=1;jettySize=auto;html=1;entryX=0.5;entryY=0;entryDx=0;entryDy=0;entryPerimeter=0;" parent="1" source="GMN3N_3CPNu_8ofVaLNI-5" target="GMN3N_3CPNu_8ofVaLNI-10" edge="1">
          <mxGeometry relative="1" as="geometry">
            <mxPoint x="400" y="490" as="targetPoint" />
            <Array as="points">
              <mxPoint x="230" y="480" />
              <mxPoint x="404" y="480" />
            </Array>
          </mxGeometry>
        </mxCell>
        <mxCell id="GMN3N_3CPNu_8ofVaLNI-5" value="Output&lt;div&gt;Nama,Harga,Stock&lt;/div&gt;&lt;div&gt;Barang&lt;/div&gt;" style="shape=parallelogram;perimeter=parallelogramPerimeter;whiteSpace=wrap;html=1;fixedSize=1;strokeWidth=2;" parent="1" vertex="1">
          <mxGeometry x="170" y="370" width="120" height="60" as="geometry" />
        </mxCell>
        <mxCell id="GMN3N_3CPNu_8ofVaLNI-11" value="" style="edgeStyle=orthogonalEdgeStyle;rounded=0;orthogonalLoop=1;jettySize=auto;html=1;exitX=0.5;exitY=1;exitDx=0;exitDy=0;" parent="1" source="WDS73jg1Xp50YnJe86Si-4" target="GMN3N_3CPNu_8ofVaLNI-10" edge="1">
          <mxGeometry relative="1" as="geometry">
            <mxPoint x="400" y="710" as="targetPoint" />
            <mxPoint x="610" y="320" as="sourcePoint" />
            <Array as="points">
              <mxPoint x="610" y="480" />
            </Array>
          </mxGeometry>
        </mxCell>
        <mxCell id="GMN3N_3CPNu_8ofVaLNI-10" value="End" style="strokeWidth=2;html=1;shape=mxgraph.flowchart.start_1;whiteSpace=wrap;" parent="1" vertex="1">
          <mxGeometry x="354" y="610" width="100" height="60" as="geometry" />
        </mxCell>
      </root>
    </mxGraphModel>
  </diagram>
  <diagram id="eoThiS2uW_arqH99izrh" name="Tambah Menu">
    <mxGraphModel dx="1034" dy="458" grid="1" gridSize="10" guides="1" tooltips="1" connect="1" arrows="1" fold="1" page="1" pageScale="1" pageWidth="827" pageHeight="1169" math="0" shadow="0">
      <root>
        <mxCell id="0" />
        <mxCell id="1" parent="0" />
        <mxCell id="IgIyReZJrlr7PnZvuJLj-3" value="" style="edgeStyle=orthogonalEdgeStyle;rounded=0;orthogonalLoop=1;jettySize=auto;html=1;" edge="1" parent="1" source="IgIyReZJrlr7PnZvuJLj-1" target="IgIyReZJrlr7PnZvuJLj-2">
          <mxGeometry relative="1" as="geometry" />
        </mxCell>
        <mxCell id="IgIyReZJrlr7PnZvuJLj-1" value="Tambah Menu" style="strokeWidth=2;html=1;shape=mxgraph.flowchart.start_1;whiteSpace=wrap;" vertex="1" parent="1">
          <mxGeometry x="360" y="40" width="100" height="60" as="geometry" />
        </mxCell>
        <mxCell id="IgIyReZJrlr7PnZvuJLj-5" value="" style="edgeStyle=orthogonalEdgeStyle;rounded=0;orthogonalLoop=1;jettySize=auto;html=1;" edge="1" parent="1" source="IgIyReZJrlr7PnZvuJLj-2" target="IgIyReZJrlr7PnZvuJLj-4">
          <mxGeometry relative="1" as="geometry" />
        </mxCell>
        <mxCell id="IgIyReZJrlr7PnZvuJLj-2" value="Input&lt;div&gt;Nama Menu&lt;/div&gt;" style="shape=parallelogram;perimeter=parallelogramPerimeter;whiteSpace=wrap;html=1;fixedSize=1;strokeWidth=2;" vertex="1" parent="1">
          <mxGeometry x="350" y="150" width="120" height="60" as="geometry" />
        </mxCell>
        <mxCell id="IgIyReZJrlr7PnZvuJLj-7" value="" style="edgeStyle=orthogonalEdgeStyle;rounded=0;orthogonalLoop=1;jettySize=auto;html=1;" edge="1" parent="1" source="IgIyReZJrlr7PnZvuJLj-4" target="IgIyReZJrlr7PnZvuJLj-6">
          <mxGeometry relative="1" as="geometry" />
        </mxCell>
        <mxCell id="IgIyReZJrlr7PnZvuJLj-4" value="Input&lt;div&gt;Harga Menu&lt;/div&gt;" style="shape=parallelogram;perimeter=parallelogramPerimeter;whiteSpace=wrap;html=1;fixedSize=1;strokeWidth=2;" vertex="1" parent="1">
          <mxGeometry x="350" y="240" width="120" height="60" as="geometry" />
        </mxCell>
        <mxCell id="IgIyReZJrlr7PnZvuJLj-9" value="" style="edgeStyle=orthogonalEdgeStyle;rounded=0;orthogonalLoop=1;jettySize=auto;html=1;" edge="1" parent="1" source="IgIyReZJrlr7PnZvuJLj-6" target="IgIyReZJrlr7PnZvuJLj-8">
          <mxGeometry relative="1" as="geometry" />
        </mxCell>
        <mxCell id="IgIyReZJrlr7PnZvuJLj-6" value="Input&lt;div&gt;Stock Menu&lt;/div&gt;" style="shape=parallelogram;perimeter=parallelogramPerimeter;whiteSpace=wrap;html=1;fixedSize=1;strokeWidth=2;" vertex="1" parent="1">
          <mxGeometry x="350" y="330" width="120" height="60" as="geometry" />
        </mxCell>
        <mxCell id="IgIyReZJrlr7PnZvuJLj-8" value="Menambahkan Item dalam Menu" style="whiteSpace=wrap;html=1;strokeWidth=2;" vertex="1" parent="1">
          <mxGeometry x="350" y="430" width="120" height="60" as="geometry" />
        </mxCell>
        <mxCell id="IgIyReZJrlr7PnZvuJLj-10" value="End" style="strokeWidth=2;html=1;shape=mxgraph.flowchart.start_1;whiteSpace=wrap;" vertex="1" parent="1">
          <mxGeometry x="360" y="540" width="100" height="60" as="geometry" />
        </mxCell>
        <mxCell id="IgIyReZJrlr7PnZvuJLj-11" style="edgeStyle=orthogonalEdgeStyle;rounded=0;orthogonalLoop=1;jettySize=auto;html=1;exitX=0.5;exitY=1;exitDx=0;exitDy=0;entryX=0.5;entryY=0;entryDx=0;entryDy=0;entryPerimeter=0;" edge="1" parent="1" source="IgIyReZJrlr7PnZvuJLj-8" target="IgIyReZJrlr7PnZvuJLj-10">
          <mxGeometry relative="1" as="geometry" />
        </mxCell>
      </root>
    </mxGraphModel>
  </diagram>
  <diagram id="yMJDVV6_B640hC1vWarm" name="Hitung Total Stock">
    <mxGraphModel dx="1034" dy="458" grid="1" gridSize="10" guides="1" tooltips="1" connect="1" arrows="1" fold="1" page="1" pageScale="1" pageWidth="827" pageHeight="1169" math="0" shadow="0">
      <root>
        <mxCell id="0" />
        <mxCell id="1" parent="0" />
        <mxCell id="hx28DNO1sCQSbGem2xNx-3" value="" style="edgeStyle=orthogonalEdgeStyle;rounded=0;orthogonalLoop=1;jettySize=auto;html=1;" edge="1" parent="1" source="hx28DNO1sCQSbGem2xNx-1" target="hx28DNO1sCQSbGem2xNx-2">
          <mxGeometry relative="1" as="geometry" />
        </mxCell>
        <mxCell id="hx28DNO1sCQSbGem2xNx-1" value="Hitung Total Stock" style="strokeWidth=2;html=1;shape=mxgraph.flowchart.start_1;whiteSpace=wrap;" vertex="1" parent="1">
          <mxGeometry x="360" y="40" width="100" height="60" as="geometry" />
        </mxCell>
        <mxCell id="hx28DNO1sCQSbGem2xNx-5" value="" style="edgeStyle=orthogonalEdgeStyle;rounded=0;orthogonalLoop=1;jettySize=auto;html=1;" edge="1" parent="1" source="hx28DNO1sCQSbGem2xNx-2">
          <mxGeometry relative="1" as="geometry">
            <mxPoint x="410" y="230" as="targetPoint" />
          </mxGeometry>
        </mxCell>
        <mxCell id="hx28DNO1sCQSbGem2xNx-2" value="Input&lt;div&gt;Index dan Items&lt;/div&gt;" style="shape=parallelogram;perimeter=parallelogramPerimeter;whiteSpace=wrap;html=1;fixedSize=1;strokeWidth=2;" vertex="1" parent="1">
          <mxGeometry x="350" y="140" width="120" height="60" as="geometry" />
        </mxCell>
        <mxCell id="hx28DNO1sCQSbGem2xNx-9" value="" style="edgeStyle=orthogonalEdgeStyle;rounded=0;orthogonalLoop=1;jettySize=auto;html=1;" edge="1" parent="1" source="hx28DNO1sCQSbGem2xNx-7" target="hx28DNO1sCQSbGem2xNx-8">
          <mxGeometry relative="1" as="geometry" />
        </mxCell>
        <mxCell id="OGUchlFqbazwb1h9-IA_-1" value="True" style="edgeLabel;html=1;align=center;verticalAlign=middle;resizable=0;points=[];" vertex="1" connectable="0" parent="hx28DNO1sCQSbGem2xNx-9">
          <mxGeometry x="-0.2148" y="2" relative="1" as="geometry">
            <mxPoint as="offset" />
          </mxGeometry>
        </mxCell>
        <mxCell id="hx28DNO1sCQSbGem2xNx-11" value="" style="edgeStyle=orthogonalEdgeStyle;rounded=0;orthogonalLoop=1;jettySize=auto;html=1;" edge="1" parent="1" source="hx28DNO1sCQSbGem2xNx-7">
          <mxGeometry relative="1" as="geometry">
            <mxPoint x="240" y="320" as="targetPoint" />
          </mxGeometry>
        </mxCell>
        <mxCell id="OGUchlFqbazwb1h9-IA_-2" value="False" style="edgeLabel;html=1;align=center;verticalAlign=middle;resizable=0;points=[];" vertex="1" connectable="0" parent="hx28DNO1sCQSbGem2xNx-11">
          <mxGeometry x="-0.2052" y="-1" relative="1" as="geometry">
            <mxPoint as="offset" />
          </mxGeometry>
        </mxCell>
        <mxCell id="hx28DNO1sCQSbGem2xNx-7" value="index &amp;gt;= len(items)" style="rhombus;whiteSpace=wrap;html=1;" vertex="1" parent="1">
          <mxGeometry x="370" y="230" width="80" height="80" as="geometry" />
        </mxCell>
        <mxCell id="hx28DNO1sCQSbGem2xNx-19" style="edgeStyle=orthogonalEdgeStyle;rounded=0;orthogonalLoop=1;jettySize=auto;html=1;exitX=0.5;exitY=1;exitDx=0;exitDy=0;" edge="1" parent="1" source="hx28DNO1sCQSbGem2xNx-8">
          <mxGeometry relative="1" as="geometry">
            <mxPoint x="410" y="620" as="targetPoint" />
            <Array as="points">
              <mxPoint x="580" y="590" />
              <mxPoint x="411" y="590" />
            </Array>
          </mxGeometry>
        </mxCell>
        <mxCell id="hx28DNO1sCQSbGem2xNx-8" value="Output&lt;div&gt;0&lt;/div&gt;" style="shape=parallelogram;perimeter=parallelogramPerimeter;whiteSpace=wrap;html=1;fixedSize=1;" vertex="1" parent="1">
          <mxGeometry x="520" y="320" width="120" height="60" as="geometry" />
        </mxCell>
        <mxCell id="hx28DNO1sCQSbGem2xNx-14" value="" style="edgeStyle=orthogonalEdgeStyle;rounded=0;orthogonalLoop=1;jettySize=auto;html=1;" edge="1" parent="1" source="hx28DNO1sCQSbGem2xNx-12" target="hx28DNO1sCQSbGem2xNx-13">
          <mxGeometry relative="1" as="geometry" />
        </mxCell>
        <mxCell id="hx28DNO1sCQSbGem2xNx-12" value="Ambil Stock Dari Items [index]" style="whiteSpace=wrap;html=1;" vertex="1" parent="1">
          <mxGeometry x="180" y="320" width="120" height="60" as="geometry" />
        </mxCell>
        <mxCell id="hx28DNO1sCQSbGem2xNx-16" value="" style="edgeStyle=orthogonalEdgeStyle;rounded=0;orthogonalLoop=1;jettySize=auto;html=1;" edge="1" parent="1" source="hx28DNO1sCQSbGem2xNx-13" target="hx28DNO1sCQSbGem2xNx-15">
          <mxGeometry relative="1" as="geometry" />
        </mxCell>
        <mxCell id="hx28DNO1sCQSbGem2xNx-13" value="&lt;p data-pm-slice=&quot;1 1 []&quot;&gt;Hitung total stok dengan rekursi untuk index + 1&lt;/p&gt;" style="whiteSpace=wrap;html=1;" vertex="1" parent="1">
          <mxGeometry x="180" y="400" width="120" height="60" as="geometry" />
        </mxCell>
        <mxCell id="hx28DNO1sCQSbGem2xNx-15" value="Output&lt;div&gt;Total stock&lt;/div&gt;" style="shape=parallelogram;perimeter=parallelogramPerimeter;whiteSpace=wrap;html=1;fixedSize=1;" vertex="1" parent="1">
          <mxGeometry x="180" y="500" width="120" height="60" as="geometry" />
        </mxCell>
        <mxCell id="hx28DNO1sCQSbGem2xNx-17" value="End" style="strokeWidth=2;html=1;shape=mxgraph.flowchart.start_1;whiteSpace=wrap;" vertex="1" parent="1">
          <mxGeometry x="360" y="620" width="100" height="60" as="geometry" />
        </mxCell>
        <mxCell id="hx28DNO1sCQSbGem2xNx-18" style="edgeStyle=orthogonalEdgeStyle;rounded=0;orthogonalLoop=1;jettySize=auto;html=1;exitX=0.5;exitY=1;exitDx=0;exitDy=0;entryX=0.5;entryY=0;entryDx=0;entryDy=0;entryPerimeter=0;" edge="1" parent="1" source="hx28DNO1sCQSbGem2xNx-15" target="hx28DNO1sCQSbGem2xNx-17">
          <mxGeometry relative="1" as="geometry" />
        </mxCell>
      </root>
    </mxGraphModel>
  </diagram>
  <diagram id="B1Qyy9Is2q_qrIy0SjJT" name="Log Out">
    <mxGraphModel dx="1034" dy="458" grid="1" gridSize="10" guides="1" tooltips="1" connect="1" arrows="1" fold="1" page="1" pageScale="1" pageWidth="827" pageHeight="1169" math="0" shadow="0">
      <root>
        <mxCell id="0" />
        <mxCell id="1" parent="0" />
        <mxCell id="55o3a8bjlmKunU31oAL2-3" value="" style="edgeStyle=orthogonalEdgeStyle;rounded=0;orthogonalLoop=1;jettySize=auto;html=1;" edge="1" parent="1" source="55o3a8bjlmKunU31oAL2-1" target="55o3a8bjlmKunU31oAL2-2">
          <mxGeometry relative="1" as="geometry" />
        </mxCell>
        <mxCell id="55o3a8bjlmKunU31oAL2-1" value="Log Out" style="strokeWidth=2;html=1;shape=mxgraph.flowchart.start_1;whiteSpace=wrap;" vertex="1" parent="1">
          <mxGeometry x="360" y="10" width="100" height="60" as="geometry" />
        </mxCell>
        <mxCell id="55o3a8bjlmKunU31oAL2-2" value="Output&lt;div&gt;Anda Berhasil Log Out&lt;/div&gt;" style="shape=parallelogram;perimeter=parallelogramPerimeter;whiteSpace=wrap;html=1;fixedSize=1;strokeWidth=2;" vertex="1" parent="1">
          <mxGeometry x="350" y="110" width="120" height="60" as="geometry" />
        </mxCell>
        <mxCell id="uCwbFr98FZwhOVg-EPzE-1" value="End" style="strokeWidth=2;html=1;shape=mxgraph.flowchart.start_1;whiteSpace=wrap;" vertex="1" parent="1">
          <mxGeometry x="360" y="210" width="100" height="60" as="geometry" />
        </mxCell>
        <mxCell id="uCwbFr98FZwhOVg-EPzE-2" style="edgeStyle=orthogonalEdgeStyle;rounded=0;orthogonalLoop=1;jettySize=auto;html=1;exitX=0.5;exitY=1;exitDx=0;exitDy=0;entryX=0.5;entryY=0;entryDx=0;entryDy=0;entryPerimeter=0;" edge="1" parent="1" source="55o3a8bjlmKunU31oAL2-2" target="uCwbFr98FZwhOVg-EPzE-1">
          <mxGeometry relative="1" as="geometry" />
        </mxCell>
      </root>
    </mxGraphModel>
  </diagram>
  <diagram id="gNaZjyC_YFzBGPulQHPE" name="Log in">
    <mxGraphModel dx="1034" dy="1627" grid="1" gridSize="10" guides="1" tooltips="1" connect="1" arrows="1" fold="1" page="1" pageScale="1" pageWidth="827" pageHeight="1169" math="0" shadow="0">
      <root>
        <mxCell id="0" />
        <mxCell id="1" parent="0" />
        <mxCell id="OnAGnKxIiia3RA1EzYrf-3" value="" style="edgeStyle=orthogonalEdgeStyle;rounded=0;orthogonalLoop=1;jettySize=auto;html=1;" edge="1" parent="1" source="OnAGnKxIiia3RA1EzYrf-1" target="OnAGnKxIiia3RA1EzYrf-2">
          <mxGeometry relative="1" as="geometry" />
        </mxCell>
        <mxCell id="OnAGnKxIiia3RA1EzYrf-1" value="Log In" style="strokeWidth=2;html=1;shape=mxgraph.flowchart.start_1;whiteSpace=wrap;" vertex="1" parent="1">
          <mxGeometry x="370" y="-760" width="100" height="60" as="geometry" />
        </mxCell>
        <mxCell id="OnAGnKxIiia3RA1EzYrf-5" value="" style="edgeStyle=orthogonalEdgeStyle;rounded=0;orthogonalLoop=1;jettySize=auto;html=1;" edge="1" parent="1" source="OnAGnKxIiia3RA1EzYrf-2" target="OnAGnKxIiia3RA1EzYrf-4">
          <mxGeometry relative="1" as="geometry" />
        </mxCell>
        <mxCell id="OnAGnKxIiia3RA1EzYrf-2" value="Input&lt;div&gt;Username dan Password&lt;/div&gt;" style="shape=parallelogram;perimeter=parallelogramPerimeter;whiteSpace=wrap;html=1;fixedSize=1;strokeWidth=2;" vertex="1" parent="1">
          <mxGeometry x="360" y="-660" width="120" height="60" as="geometry" />
        </mxCell>
        <mxCell id="OnAGnKxIiia3RA1EzYrf-7" value="" style="edgeStyle=orthogonalEdgeStyle;rounded=0;orthogonalLoop=1;jettySize=auto;html=1;" edge="1" parent="1" source="OnAGnKxIiia3RA1EzYrf-4" target="OnAGnKxIiia3RA1EzYrf-6">
          <mxGeometry relative="1" as="geometry" />
        </mxCell>
        <mxCell id="OnAGnKxIiia3RA1EzYrf-16" value="True" style="edgeLabel;html=1;align=center;verticalAlign=middle;resizable=0;points=[];" vertex="1" connectable="0" parent="OnAGnKxIiia3RA1EzYrf-7">
          <mxGeometry x="-0.3719" y="-2" relative="1" as="geometry">
            <mxPoint as="offset" />
          </mxGeometry>
        </mxCell>
        <mxCell id="OnAGnKxIiia3RA1EzYrf-14" style="edgeStyle=orthogonalEdgeStyle;rounded=0;orthogonalLoop=1;jettySize=auto;html=1;exitX=0;exitY=0.5;exitDx=0;exitDy=0;entryX=0.5;entryY=0;entryDx=0;entryDy=0;" edge="1" parent="1" source="OnAGnKxIiia3RA1EzYrf-4" target="OnAGnKxIiia3RA1EzYrf-10">
          <mxGeometry relative="1" as="geometry" />
        </mxCell>
        <mxCell id="OnAGnKxIiia3RA1EzYrf-15" value="False" style="edgeLabel;html=1;align=center;verticalAlign=middle;resizable=0;points=[];" vertex="1" connectable="0" parent="OnAGnKxIiia3RA1EzYrf-14">
          <mxGeometry x="-0.7686" y="2" relative="1" as="geometry">
            <mxPoint as="offset" />
          </mxGeometry>
        </mxCell>
        <mxCell id="OnAGnKxIiia3RA1EzYrf-4" value="Apakah Pengguna Ada?" style="rhombus;whiteSpace=wrap;html=1;strokeWidth=2;" vertex="1" parent="1">
          <mxGeometry x="380" y="-560" width="80" height="80" as="geometry" />
        </mxCell>
        <mxCell id="OnAGnKxIiia3RA1EzYrf-9" value="" style="edgeStyle=orthogonalEdgeStyle;rounded=0;orthogonalLoop=1;jettySize=auto;html=1;" edge="1" parent="1" source="OnAGnKxIiia3RA1EzYrf-6" target="OnAGnKxIiia3RA1EzYrf-8">
          <mxGeometry relative="1" as="geometry">
            <Array as="points">
              <mxPoint x="767" y="-430" />
            </Array>
          </mxGeometry>
        </mxCell>
        <mxCell id="OnAGnKxIiia3RA1EzYrf-13" value="True" style="edgeLabel;html=1;align=center;verticalAlign=middle;resizable=0;points=[];" vertex="1" connectable="0" parent="OnAGnKxIiia3RA1EzYrf-9">
          <mxGeometry x="-0.4153" y="-3" relative="1" as="geometry">
            <mxPoint as="offset" />
          </mxGeometry>
        </mxCell>
        <mxCell id="OnAGnKxIiia3RA1EzYrf-11" value="" style="edgeStyle=orthogonalEdgeStyle;rounded=0;orthogonalLoop=1;jettySize=auto;html=1;" edge="1" parent="1" source="OnAGnKxIiia3RA1EzYrf-6" target="OnAGnKxIiia3RA1EzYrf-10">
          <mxGeometry relative="1" as="geometry" />
        </mxCell>
        <mxCell id="OnAGnKxIiia3RA1EzYrf-12" value="False" style="edgeLabel;html=1;align=center;verticalAlign=middle;resizable=0;points=[];" vertex="1" connectable="0" parent="OnAGnKxIiia3RA1EzYrf-11">
          <mxGeometry x="-0.3798" y="4" relative="1" as="geometry">
            <mxPoint as="offset" />
          </mxGeometry>
        </mxCell>
        <mxCell id="OnAGnKxIiia3RA1EzYrf-6" value="Apakah Password Cocok?" style="rhombus;whiteSpace=wrap;html=1;strokeWidth=2;" vertex="1" parent="1">
          <mxGeometry x="560" y="-470" width="80" height="80" as="geometry" />
        </mxCell>
        <mxCell id="OnAGnKxIiia3RA1EzYrf-8" value="Output&lt;div&gt;Selamat Datang,Username!&lt;/div&gt;" style="shape=parallelogram;perimeter=parallelogramPerimeter;whiteSpace=wrap;html=1;fixedSize=1;strokeWidth=2;" vertex="1" parent="1">
          <mxGeometry x="707" y="-370" width="120" height="60" as="geometry" />
        </mxCell>
        <mxCell id="OnAGnKxIiia3RA1EzYrf-17" style="edgeStyle=orthogonalEdgeStyle;rounded=0;orthogonalLoop=1;jettySize=auto;html=1;exitX=0.5;exitY=1;exitDx=0;exitDy=0;" edge="1" parent="1" source="OnAGnKxIiia3RA1EzYrf-10" target="OnAGnKxIiia3RA1EzYrf-18">
          <mxGeometry relative="1" as="geometry">
            <mxPoint x="480" y="-70" as="targetPoint" />
          </mxGeometry>
        </mxCell>
        <mxCell id="OnAGnKxIiia3RA1EzYrf-10" value="Output&lt;div&gt;&lt;span style=&quot;background-color: initial;&quot;&gt;Login gagal, username atau password salah&lt;/span&gt;&lt;/div&gt;" style="shape=parallelogram;perimeter=parallelogramPerimeter;whiteSpace=wrap;html=1;fixedSize=1;strokeWidth=2;" vertex="1" parent="1">
          <mxGeometry x="230" y="-270" width="140" height="60" as="geometry" />
        </mxCell>
        <mxCell id="OnAGnKxIiia3RA1EzYrf-18" value="End" style="strokeWidth=2;html=1;shape=mxgraph.flowchart.start_1;whiteSpace=wrap;" vertex="1" parent="1">
          <mxGeometry x="510" y="-90" width="100" height="60" as="geometry" />
        </mxCell>
        <mxCell id="OnAGnKxIiia3RA1EzYrf-19" style="edgeStyle=orthogonalEdgeStyle;rounded=0;orthogonalLoop=1;jettySize=auto;html=1;exitX=0.5;exitY=1;exitDx=0;exitDy=0;entryX=0.5;entryY=0;entryDx=0;entryDy=0;entryPerimeter=0;" edge="1" parent="1" source="OnAGnKxIiia3RA1EzYrf-8" target="OnAGnKxIiia3RA1EzYrf-18">
          <mxGeometry relative="1" as="geometry">
            <Array as="points">
              <mxPoint x="767" y="-150" />
              <mxPoint x="560" y="-150" />
            </Array>
          </mxGeometry>
        </mxCell>
      </root>
    </mxGraphModel>
  </diagram>
</mxfile>
